<mxfile host="65bd71144e">
    <diagram id="j1F3rtC8_g7Te9sxyEJ5" name="第 1 页">
        <mxGraphModel dx="872" dy="756" grid="1" gridSize="10" guides="1" tooltips="1" connect="1" arrows="1" fold="1" page="1" pageScale="1" pageWidth="827" pageHeight="1169" math="0" shadow="0">
            <root>
                <mxCell id="0"/>
                <mxCell id="1" parent="0"/>
                <mxCell id="2" value="" style="endArrow=none;html=1;" parent="1" edge="1">
                    <mxGeometry width="50" height="50" relative="1" as="geometry">
                        <mxPoint x="200" y="400" as="sourcePoint"/>
                        <mxPoint x="400" y="400" as="targetPoint"/>
                    </mxGeometry>
                </mxCell>
                <mxCell id="3" value="" style="endArrow=none;html=1;" parent="1" edge="1">
                    <mxGeometry width="50" height="50" relative="1" as="geometry">
                        <mxPoint x="200" y="480" as="sourcePoint"/>
                        <mxPoint x="480" y="480" as="targetPoint"/>
                    </mxGeometry>
                </mxCell>
                <mxCell id="4" value="" style="endArrow=none;html=1;" parent="1" edge="1">
                    <mxGeometry width="50" height="50" relative="1" as="geometry">
                        <mxPoint x="400" y="360" as="sourcePoint"/>
                        <mxPoint x="400" y="360" as="targetPoint"/>
                    </mxGeometry>
                </mxCell>
                <mxCell id="5" value="" style="endArrow=none;dashed=1;html=1;" parent="1" edge="1">
                    <mxGeometry width="50" height="50" relative="1" as="geometry">
                        <mxPoint x="400" y="760" as="sourcePoint"/>
                        <mxPoint x="400" y="280" as="targetPoint"/>
                    </mxGeometry>
                </mxCell>
                <mxCell id="6" value="" style="endArrow=none;html=1;" parent="1" edge="1">
                    <mxGeometry width="50" height="50" relative="1" as="geometry">
                        <mxPoint x="400" y="360" as="sourcePoint"/>
                        <mxPoint x="660" y="360" as="targetPoint"/>
                    </mxGeometry>
                </mxCell>
                <mxCell id="7" value="" style="endArrow=none;html=1;" parent="1" edge="1">
                    <mxGeometry width="50" height="50" relative="1" as="geometry">
                        <mxPoint x="480" y="440" as="sourcePoint"/>
                        <mxPoint x="660" y="440" as="targetPoint"/>
                    </mxGeometry>
                </mxCell>
                <mxCell id="8" value="" style="endArrow=none;dashed=1;html=1;" parent="1" edge="1">
                    <mxGeometry width="50" height="50" relative="1" as="geometry">
                        <mxPoint x="480" y="760" as="sourcePoint"/>
                        <mxPoint x="480" y="280" as="targetPoint"/>
                    </mxGeometry>
                </mxCell>
                <mxCell id="9" value="Swtich 供电管脚POWER_ETH_EN" style="text;html=1;strokeColor=none;fillColor=none;align=center;verticalAlign=middle;whiteSpace=wrap;rounded=0;" parent="1" vertex="1">
                    <mxGeometry x="105" y="390" width="80" height="20" as="geometry"/>
                </mxCell>
                <mxCell id="10" value="Swtich 复位管脚ENET_RESETn" style="text;html=1;strokeColor=none;fillColor=none;align=center;verticalAlign=middle;whiteSpace=wrap;rounded=0;" parent="1" vertex="1">
                    <mxGeometry x="105" y="470" width="90" height="20" as="geometry"/>
                </mxCell>
                <mxCell id="12" value="15ms(&amp;gt;10ms)" style="text;html=1;strokeColor=none;fillColor=none;align=center;verticalAlign=middle;whiteSpace=wrap;rounded=0;" parent="1" vertex="1">
                    <mxGeometry x="420" y="300" width="40" height="20" as="geometry"/>
                </mxCell>
                <mxCell id="13" value="" style="endArrow=classic;html=1;" parent="1" edge="1">
                    <mxGeometry width="50" height="50" relative="1" as="geometry">
                        <mxPoint x="400" y="320" as="sourcePoint"/>
                        <mxPoint x="480" y="320" as="targetPoint"/>
                    </mxGeometry>
                </mxCell>
                <mxCell id="15" value="Switch&lt;br&gt;硬件初始化" style="text;html=1;strokeColor=none;fillColor=none;align=center;verticalAlign=middle;whiteSpace=wrap;rounded=0;" parent="1" vertex="1">
                    <mxGeometry x="405" y="270" width="70" height="20" as="geometry"/>
                </mxCell>
                <mxCell id="16" value="" style="endArrow=none;dashed=1;html=1;" parent="1" edge="1">
                    <mxGeometry width="50" height="50" relative="1" as="geometry">
                        <mxPoint x="640" y="760" as="sourcePoint"/>
                        <mxPoint x="640" y="280" as="targetPoint"/>
                    </mxGeometry>
                </mxCell>
                <mxCell id="17" value="" style="endArrow=classic;html=1;" parent="1" edge="1">
                    <mxGeometry width="50" height="50" relative="1" as="geometry">
                        <mxPoint x="480" y="320" as="sourcePoint"/>
                        <mxPoint x="640" y="320" as="targetPoint"/>
                    </mxGeometry>
                </mxCell>
                <mxCell id="18" value="Switch&lt;br&gt;软件初始化" style="text;html=1;strokeColor=none;fillColor=none;align=center;verticalAlign=middle;whiteSpace=wrap;rounded=0;" parent="1" vertex="1">
                    <mxGeometry x="530" y="293" width="70" height="20" as="geometry"/>
                </mxCell>
                <mxCell id="19" style="edgeStyle=orthogonalEdgeStyle;rounded=0;orthogonalLoop=1;jettySize=auto;html=1;exitX=0.5;exitY=1;exitDx=0;exitDy=0;" parent="1" source="18" target="18" edge="1">
                    <mxGeometry relative="1" as="geometry"/>
                </mxCell>
                <mxCell id="20" value="" style="endArrow=none;html=1;" parent="1" edge="1">
                    <mxGeometry width="50" height="50" relative="1" as="geometry">
                        <mxPoint x="190" y="640" as="sourcePoint"/>
                        <mxPoint x="660" y="640" as="targetPoint"/>
                    </mxGeometry>
                </mxCell>
                <mxCell id="22" value="CAN 通信状态" style="text;html=1;strokeColor=none;fillColor=none;align=center;verticalAlign=middle;whiteSpace=wrap;rounded=0;" parent="1" vertex="1">
                    <mxGeometry x="105" y="630" width="80" height="20" as="geometry"/>
                </mxCell>
                <mxCell id="23" value="以太网通信状态" style="text;html=1;strokeColor=none;fillColor=none;align=center;verticalAlign=middle;whiteSpace=wrap;rounded=0;" parent="1" vertex="1">
                    <mxGeometry x="100" y="710" width="90" height="20" as="geometry"/>
                </mxCell>
                <mxCell id="24" value="" style="endArrow=none;html=1;" parent="1" edge="1">
                    <mxGeometry width="50" height="50" relative="1" as="geometry">
                        <mxPoint x="190" y="720" as="sourcePoint"/>
                        <mxPoint x="660" y="720" as="targetPoint"/>
                    </mxGeometry>
                </mxCell>
                <mxCell id="25" value="" style="endArrow=none;html=1;" parent="1" edge="1">
                    <mxGeometry width="50" height="50" relative="1" as="geometry">
                        <mxPoint x="200" y="560" as="sourcePoint"/>
                        <mxPoint x="640" y="560" as="targetPoint"/>
                    </mxGeometry>
                </mxCell>
                <mxCell id="26" value="Switch 初始化状态" style="text;html=1;strokeColor=none;fillColor=none;align=center;verticalAlign=middle;whiteSpace=wrap;rounded=0;" parent="1" vertex="1">
                    <mxGeometry x="115" y="550" width="80" height="20" as="geometry"/>
                </mxCell>
                <mxCell id="28" value="" style="endArrow=none;html=1;" parent="1" edge="1">
                    <mxGeometry width="50" height="50" relative="1" as="geometry">
                        <mxPoint x="640" y="520" as="sourcePoint"/>
                        <mxPoint x="660" y="520" as="targetPoint"/>
                    </mxGeometry>
                </mxCell>
                <mxCell id="29" value="" style="endArrow=none;html=1;" parent="1" edge="1">
                    <mxGeometry width="50" height="50" relative="1" as="geometry">
                        <mxPoint x="730" y="600" as="sourcePoint"/>
                        <mxPoint x="950" y="600" as="targetPoint"/>
                    </mxGeometry>
                </mxCell>
                <mxCell id="30" value="" style="endArrow=none;html=1;" parent="1" edge="1">
                    <mxGeometry width="50" height="50" relative="1" as="geometry">
                        <mxPoint x="750" y="680" as="sourcePoint"/>
                        <mxPoint x="970" y="680" as="targetPoint"/>
                    </mxGeometry>
                </mxCell>
                <mxCell id="31" value="" style="endArrow=none;html=1;" parent="1" edge="1">
                    <mxGeometry width="50" height="50" relative="1" as="geometry">
                        <mxPoint x="968" y="720" as="sourcePoint"/>
                        <mxPoint x="1160" y="720" as="targetPoint"/>
                    </mxGeometry>
                </mxCell>
                <mxCell id="32" value="" style="endArrow=none;dashed=1;html=1;" parent="1" edge="1">
                    <mxGeometry width="50" height="50" relative="1" as="geometry">
                        <mxPoint x="1079" y="760" as="sourcePoint"/>
                        <mxPoint x="1079" y="280" as="targetPoint"/>
                    </mxGeometry>
                </mxCell>
                <mxCell id="33" value="" style="endArrow=none;html=1;" parent="1" edge="1">
                    <mxGeometry width="50" height="50" relative="1" as="geometry">
                        <mxPoint x="948" y="640" as="sourcePoint"/>
                        <mxPoint x="1160" y="640" as="targetPoint"/>
                    </mxGeometry>
                </mxCell>
                <mxCell id="34" value="MCU Sleep" style="text;html=1;strokeColor=none;fillColor=none;align=center;verticalAlign=middle;whiteSpace=wrap;rounded=0;" parent="1" vertex="1">
                    <mxGeometry x="1028" y="260" width="80" height="20" as="geometry"/>
                </mxCell>
                <mxCell id="35" value="" style="endArrow=none;dashed=1;html=1;" parent="1" edge="1">
                    <mxGeometry width="50" height="50" relative="1" as="geometry">
                        <mxPoint x="948" y="760" as="sourcePoint"/>
                        <mxPoint x="948" y="280" as="targetPoint"/>
                    </mxGeometry>
                </mxCell>
                <mxCell id="36" value="Can Network Sleep" style="text;html=1;strokeColor=none;fillColor=none;align=center;verticalAlign=middle;whiteSpace=wrap;rounded=0;" parent="1" vertex="1">
                    <mxGeometry x="908" y="260" width="80" height="20" as="geometry"/>
                </mxCell>
                <mxCell id="38" value="" style="endArrow=none;html=1;" parent="1" edge="1">
                    <mxGeometry width="50" height="50" relative="1" as="geometry">
                        <mxPoint x="1070" y="480" as="sourcePoint"/>
                        <mxPoint x="1160" y="480" as="targetPoint"/>
                    </mxGeometry>
                </mxCell>
                <mxCell id="39" value="" style="endArrow=none;html=1;" parent="1" edge="1">
                    <mxGeometry width="50" height="50" relative="1" as="geometry">
                        <mxPoint x="1070" y="400" as="sourcePoint"/>
                        <mxPoint x="1160" y="400" as="targetPoint"/>
                    </mxGeometry>
                </mxCell>
                <mxCell id="40" value="" style="endArrow=none;html=1;" parent="1" edge="1">
                    <mxGeometry width="50" height="50" relative="1" as="geometry">
                        <mxPoint x="1070" y="560" as="sourcePoint"/>
                        <mxPoint x="1160" y="560" as="targetPoint"/>
                    </mxGeometry>
                </mxCell>
                <mxCell id="41" value="" style="endArrow=none;html=1;" parent="1" edge="1">
                    <mxGeometry width="50" height="50" relative="1" as="geometry">
                        <mxPoint x="400" y="400" as="sourcePoint"/>
                        <mxPoint x="400" y="360" as="targetPoint"/>
                    </mxGeometry>
                </mxCell>
                <mxCell id="42" value="" style="endArrow=none;html=1;" parent="1" edge="1">
                    <mxGeometry width="50" height="50" relative="1" as="geometry">
                        <mxPoint x="480.0000000000001" y="480" as="sourcePoint"/>
                        <mxPoint x="480.0000000000001" y="440" as="targetPoint"/>
                    </mxGeometry>
                </mxCell>
                <mxCell id="43" value="" style="endArrow=none;html=1;" parent="1" edge="1">
                    <mxGeometry width="50" height="50" relative="1" as="geometry">
                        <mxPoint x="640" y="560" as="sourcePoint"/>
                        <mxPoint x="640" y="520" as="targetPoint"/>
                    </mxGeometry>
                </mxCell>
                <mxCell id="44" value="" style="endArrow=none;html=1;" parent="1" edge="1">
                    <mxGeometry width="50" height="50" relative="1" as="geometry">
                        <mxPoint x="730" y="640" as="sourcePoint"/>
                        <mxPoint x="730" y="600" as="targetPoint"/>
                    </mxGeometry>
                </mxCell>
                <mxCell id="45" value="" style="endArrow=none;html=1;" parent="1" edge="1">
                    <mxGeometry width="50" height="50" relative="1" as="geometry">
                        <mxPoint x="750" y="720" as="sourcePoint"/>
                        <mxPoint x="750" y="680" as="targetPoint"/>
                    </mxGeometry>
                </mxCell>
                <mxCell id="46" value="" style="endArrow=none;html=1;" parent="1" edge="1">
                    <mxGeometry width="50" height="50" relative="1" as="geometry">
                        <mxPoint x="968" y="720" as="sourcePoint"/>
                        <mxPoint x="968" y="680" as="targetPoint"/>
                    </mxGeometry>
                </mxCell>
                <mxCell id="47" value="" style="endArrow=none;html=1;" parent="1" edge="1">
                    <mxGeometry width="50" height="50" relative="1" as="geometry">
                        <mxPoint x="947.58" y="640" as="sourcePoint"/>
                        <mxPoint x="947.58" y="600" as="targetPoint"/>
                    </mxGeometry>
                </mxCell>
                <mxCell id="48" value="" style="endArrow=none;html=1;" parent="1" edge="1">
                    <mxGeometry width="50" height="50" relative="1" as="geometry">
                        <mxPoint x="1069.58" y="560" as="sourcePoint"/>
                        <mxPoint x="1069.58" y="520" as="targetPoint"/>
                    </mxGeometry>
                </mxCell>
                <mxCell id="52" value="" style="endArrow=none;html=1;" parent="1" edge="1">
                    <mxGeometry width="50" height="50" relative="1" as="geometry">
                        <mxPoint x="1069.58" y="480" as="sourcePoint"/>
                        <mxPoint x="1069.58" y="440" as="targetPoint"/>
                    </mxGeometry>
                </mxCell>
                <mxCell id="53" value="" style="endArrow=none;html=1;" parent="1" edge="1">
                    <mxGeometry width="50" height="50" relative="1" as="geometry">
                        <mxPoint x="1069.58" y="400" as="sourcePoint"/>
                        <mxPoint x="1069.58" y="360" as="targetPoint"/>
                    </mxGeometry>
                </mxCell>
                <mxCell id="yEzNcK2BsANwFYAjAgo_-60" value="" style="group" parent="1" vertex="1" connectable="0">
                    <mxGeometry x="660" y="710.0000000000001" width="20" height="20" as="geometry"/>
                </mxCell>
                <mxCell id="yEzNcK2BsANwFYAjAgo_-61" value="" style="endArrow=none;html=1;" parent="yEzNcK2BsANwFYAjAgo_-60" edge="1">
                    <mxGeometry width="50" height="50" relative="1" as="geometry">
                        <mxPoint y="10" as="sourcePoint"/>
                        <mxPoint x="10" as="targetPoint"/>
                    </mxGeometry>
                </mxCell>
                <mxCell id="yEzNcK2BsANwFYAjAgo_-62" value="" style="endArrow=none;html=1;" parent="yEzNcK2BsANwFYAjAgo_-60" edge="1">
                    <mxGeometry width="50" height="50" relative="1" as="geometry">
                        <mxPoint x="10" as="sourcePoint"/>
                        <mxPoint x="10" y="20" as="targetPoint"/>
                    </mxGeometry>
                </mxCell>
                <mxCell id="yEzNcK2BsANwFYAjAgo_-63" value="" style="endArrow=none;html=1;" parent="yEzNcK2BsANwFYAjAgo_-60" edge="1">
                    <mxGeometry width="50" height="50" relative="1" as="geometry">
                        <mxPoint x="10" y="20" as="sourcePoint"/>
                        <mxPoint x="20" y="10" as="targetPoint"/>
                    </mxGeometry>
                </mxCell>
                <mxCell id="yEzNcK2BsANwFYAjAgo_-64" value="" style="group" parent="1" vertex="1" connectable="0">
                    <mxGeometry x="660" y="630.0000000000001" width="20" height="20" as="geometry"/>
                </mxCell>
                <mxCell id="yEzNcK2BsANwFYAjAgo_-65" value="" style="endArrow=none;html=1;" parent="yEzNcK2BsANwFYAjAgo_-64" edge="1">
                    <mxGeometry width="50" height="50" relative="1" as="geometry">
                        <mxPoint y="10" as="sourcePoint"/>
                        <mxPoint x="10" as="targetPoint"/>
                    </mxGeometry>
                </mxCell>
                <mxCell id="yEzNcK2BsANwFYAjAgo_-66" value="" style="endArrow=none;html=1;" parent="yEzNcK2BsANwFYAjAgo_-64" edge="1">
                    <mxGeometry width="50" height="50" relative="1" as="geometry">
                        <mxPoint x="10" as="sourcePoint"/>
                        <mxPoint x="10" y="20" as="targetPoint"/>
                    </mxGeometry>
                </mxCell>
                <mxCell id="yEzNcK2BsANwFYAjAgo_-67" value="" style="endArrow=none;html=1;" parent="yEzNcK2BsANwFYAjAgo_-64" edge="1">
                    <mxGeometry width="50" height="50" relative="1" as="geometry">
                        <mxPoint x="10" y="20" as="sourcePoint"/>
                        <mxPoint x="20" y="10" as="targetPoint"/>
                    </mxGeometry>
                </mxCell>
                <mxCell id="yEzNcK2BsANwFYAjAgo_-68" value="" style="group" parent="1" vertex="1" connectable="0">
                    <mxGeometry x="660" y="510.0000000000001" width="20" height="20" as="geometry"/>
                </mxCell>
                <mxCell id="yEzNcK2BsANwFYAjAgo_-69" value="" style="endArrow=none;html=1;" parent="yEzNcK2BsANwFYAjAgo_-68" edge="1">
                    <mxGeometry width="50" height="50" relative="1" as="geometry">
                        <mxPoint y="10" as="sourcePoint"/>
                        <mxPoint x="10" as="targetPoint"/>
                    </mxGeometry>
                </mxCell>
                <mxCell id="yEzNcK2BsANwFYAjAgo_-70" value="" style="endArrow=none;html=1;" parent="yEzNcK2BsANwFYAjAgo_-68" edge="1">
                    <mxGeometry width="50" height="50" relative="1" as="geometry">
                        <mxPoint x="10" as="sourcePoint"/>
                        <mxPoint x="10" y="20" as="targetPoint"/>
                    </mxGeometry>
                </mxCell>
                <mxCell id="yEzNcK2BsANwFYAjAgo_-71" value="" style="endArrow=none;html=1;" parent="yEzNcK2BsANwFYAjAgo_-68" edge="1">
                    <mxGeometry width="50" height="50" relative="1" as="geometry">
                        <mxPoint x="10" y="20" as="sourcePoint"/>
                        <mxPoint x="20" y="10" as="targetPoint"/>
                    </mxGeometry>
                </mxCell>
                <mxCell id="yEzNcK2BsANwFYAjAgo_-72" value="" style="group" parent="1" vertex="1" connectable="0">
                    <mxGeometry x="660" y="430.0000000000001" width="20" height="20" as="geometry"/>
                </mxCell>
                <mxCell id="yEzNcK2BsANwFYAjAgo_-73" value="" style="endArrow=none;html=1;" parent="yEzNcK2BsANwFYAjAgo_-72" edge="1">
                    <mxGeometry width="50" height="50" relative="1" as="geometry">
                        <mxPoint y="10" as="sourcePoint"/>
                        <mxPoint x="10" as="targetPoint"/>
                    </mxGeometry>
                </mxCell>
                <mxCell id="yEzNcK2BsANwFYAjAgo_-74" value="" style="endArrow=none;html=1;" parent="yEzNcK2BsANwFYAjAgo_-72" edge="1">
                    <mxGeometry width="50" height="50" relative="1" as="geometry">
                        <mxPoint x="10" as="sourcePoint"/>
                        <mxPoint x="10" y="20" as="targetPoint"/>
                    </mxGeometry>
                </mxCell>
                <mxCell id="yEzNcK2BsANwFYAjAgo_-75" value="" style="endArrow=none;html=1;" parent="yEzNcK2BsANwFYAjAgo_-72" edge="1">
                    <mxGeometry width="50" height="50" relative="1" as="geometry">
                        <mxPoint x="10" y="20" as="sourcePoint"/>
                        <mxPoint x="20" y="10" as="targetPoint"/>
                    </mxGeometry>
                </mxCell>
                <mxCell id="yEzNcK2BsANwFYAjAgo_-76" value="" style="group" parent="1" vertex="1" connectable="0">
                    <mxGeometry x="660" y="350.0000000000001" width="20" height="20" as="geometry"/>
                </mxCell>
                <mxCell id="yEzNcK2BsANwFYAjAgo_-77" value="" style="endArrow=none;html=1;" parent="yEzNcK2BsANwFYAjAgo_-76" edge="1">
                    <mxGeometry width="50" height="50" relative="1" as="geometry">
                        <mxPoint y="10" as="sourcePoint"/>
                        <mxPoint x="10" as="targetPoint"/>
                    </mxGeometry>
                </mxCell>
                <mxCell id="yEzNcK2BsANwFYAjAgo_-78" value="" style="endArrow=none;html=1;" parent="yEzNcK2BsANwFYAjAgo_-76" edge="1">
                    <mxGeometry width="50" height="50" relative="1" as="geometry">
                        <mxPoint x="10" as="sourcePoint"/>
                        <mxPoint x="10" y="20" as="targetPoint"/>
                    </mxGeometry>
                </mxCell>
                <mxCell id="yEzNcK2BsANwFYAjAgo_-79" value="" style="endArrow=none;html=1;" parent="yEzNcK2BsANwFYAjAgo_-76" edge="1">
                    <mxGeometry width="50" height="50" relative="1" as="geometry">
                        <mxPoint x="10" y="20" as="sourcePoint"/>
                        <mxPoint x="20" y="10" as="targetPoint"/>
                    </mxGeometry>
                </mxCell>
                <mxCell id="yEzNcK2BsANwFYAjAgo_-80" value="" style="endArrow=none;html=1;" parent="1" edge="1">
                    <mxGeometry width="50" height="50" relative="1" as="geometry">
                        <mxPoint x="680" y="720" as="sourcePoint"/>
                        <mxPoint x="750" y="720" as="targetPoint"/>
                    </mxGeometry>
                </mxCell>
                <mxCell id="yEzNcK2BsANwFYAjAgo_-81" value="" style="endArrow=none;html=1;" parent="1" edge="1">
                    <mxGeometry width="50" height="50" relative="1" as="geometry">
                        <mxPoint x="680" y="640" as="sourcePoint"/>
                        <mxPoint x="730" y="640" as="targetPoint"/>
                    </mxGeometry>
                </mxCell>
                <mxCell id="yEzNcK2BsANwFYAjAgo_-82" value="" style="endArrow=none;html=1;" parent="1" edge="1">
                    <mxGeometry width="50" height="50" relative="1" as="geometry">
                        <mxPoint x="680" y="520" as="sourcePoint"/>
                        <mxPoint x="1070" y="520" as="targetPoint"/>
                    </mxGeometry>
                </mxCell>
                <mxCell id="yEzNcK2BsANwFYAjAgo_-83" value="" style="endArrow=none;html=1;" parent="1" edge="1">
                    <mxGeometry width="50" height="50" relative="1" as="geometry">
                        <mxPoint x="680" y="440" as="sourcePoint"/>
                        <mxPoint x="1070" y="440" as="targetPoint"/>
                    </mxGeometry>
                </mxCell>
                <mxCell id="yEzNcK2BsANwFYAjAgo_-84" value="" style="endArrow=none;html=1;" parent="1" edge="1">
                    <mxGeometry width="50" height="50" relative="1" as="geometry">
                        <mxPoint x="680" y="360" as="sourcePoint"/>
                        <mxPoint x="1070" y="360" as="targetPoint"/>
                    </mxGeometry>
                </mxCell>
                <mxCell id="yEzNcK2BsANwFYAjAgo_-85" value="" style="endArrow=classic;html=1;" parent="1" edge="1">
                    <mxGeometry width="50" height="50" relative="1" as="geometry">
                        <mxPoint x="640" y="320" as="sourcePoint"/>
                        <mxPoint x="950" y="320" as="targetPoint"/>
                    </mxGeometry>
                </mxCell>
                <mxCell id="yEzNcK2BsANwFYAjAgo_-86" value="由CAN通信状态开启以太网通信" style="text;html=1;strokeColor=none;fillColor=none;align=center;verticalAlign=middle;whiteSpace=wrap;rounded=0;" parent="1" vertex="1">
                    <mxGeometry x="720" y="293" width="180" height="20" as="geometry"/>
                </mxCell>
                <mxCell id="yEzNcK2BsANwFYAjAgo_-87" value="" style="endArrow=classic;html=1;" parent="1" edge="1">
                    <mxGeometry width="50" height="50" relative="1" as="geometry">
                        <mxPoint x="950" y="320" as="sourcePoint"/>
                        <mxPoint x="1080" y="320" as="targetPoint"/>
                    </mxGeometry>
                </mxCell>
                <mxCell id="yEzNcK2BsANwFYAjAgo_-88" value="关闭以太网通信&lt;br&gt;MCU休眠前操作" style="text;html=1;strokeColor=none;fillColor=none;align=center;verticalAlign=middle;whiteSpace=wrap;rounded=0;" parent="1" vertex="1">
                    <mxGeometry x="920" y="293" width="180" height="20" as="geometry"/>
                </mxCell>
            </root>
        </mxGraphModel>
    </diagram>
    <diagram id="VNH7qsbFug7DI9_gSmjw" name="第 2 页">
        <mxGraphModel dx="872" dy="756" grid="1" gridSize="10" guides="1" tooltips="1" connect="1" arrows="1" fold="1" page="1" pageScale="1" pageWidth="827" pageHeight="1169" math="0" shadow="0">
            <root>
                <mxCell id="rDEXbTIAgyPYjfBjBcS_-0"/>
                <mxCell id="rDEXbTIAgyPYjfBjBcS_-1" parent="rDEXbTIAgyPYjfBjBcS_-0"/>
                <mxCell id="rDEXbTIAgyPYjfBjBcS_-8" value="" style="rounded=1;whiteSpace=wrap;html=1;" parent="rDEXbTIAgyPYjfBjBcS_-1" vertex="1">
                    <mxGeometry x="140" y="330" width="300" height="340" as="geometry"/>
                </mxCell>
                <mxCell id="rDEXbTIAgyPYjfBjBcS_-2" value="Local Tester" style="rounded=0;whiteSpace=wrap;html=1;" parent="rDEXbTIAgyPYjfBjBcS_-1" vertex="1">
                    <mxGeometry x="180" y="700" width="80" height="40" as="geometry"/>
                </mxCell>
                <mxCell id="rDEXbTIAgyPYjfBjBcS_-3" value="Eth协议栈&lt;br&gt;Eth/EthIf/TcpIp/SoAd" style="rounded=0;whiteSpace=wrap;html=1;" parent="rDEXbTIAgyPYjfBjBcS_-1" vertex="1">
                    <mxGeometry x="160" y="600" width="120" height="40" as="geometry"/>
                </mxCell>
                <mxCell id="rDEXbTIAgyPYjfBjBcS_-6" value="DoIP" style="rounded=0;whiteSpace=wrap;html=1;" parent="rDEXbTIAgyPYjfBjBcS_-1" vertex="1">
                    <mxGeometry x="160" y="520" width="120" height="40" as="geometry"/>
                </mxCell>
                <mxCell id="rDEXbTIAgyPYjfBjBcS_-7" value="DCM" style="rounded=0;whiteSpace=wrap;html=1;" parent="rDEXbTIAgyPYjfBjBcS_-1" vertex="1">
                    <mxGeometry x="160" y="360" width="260" height="40" as="geometry"/>
                </mxCell>
                <mxCell id="rDEXbTIAgyPYjfBjBcS_-10" value="" style="endArrow=classic;startArrow=classic;html=1;exitX=0.5;exitY=1;exitDx=0;exitDy=0;fillColor=#d80073;strokeColor=#A50040;" parent="rDEXbTIAgyPYjfBjBcS_-1" source="rDEXbTIAgyPYjfBjBcS_-3" target="rDEXbTIAgyPYjfBjBcS_-2" edge="1">
                    <mxGeometry width="50" height="50" relative="1" as="geometry">
                        <mxPoint x="390" y="440" as="sourcePoint"/>
                        <mxPoint x="440" y="390" as="targetPoint"/>
                    </mxGeometry>
                </mxCell>
                <mxCell id="rDEXbTIAgyPYjfBjBcS_-12" value="Can&lt;br&gt;Node1" style="rounded=1;whiteSpace=wrap;html=1;" parent="rDEXbTIAgyPYjfBjBcS_-1" vertex="1">
                    <mxGeometry x="450" y="760" width="40" height="60" as="geometry"/>
                </mxCell>
                <mxCell id="rDEXbTIAgyPYjfBjBcS_-14" value="" style="endArrow=classic;startArrow=classic;html=1;exitX=0.5;exitY=0;exitDx=0;exitDy=0;strokeColor=#005700;fillColor=#008a00;" parent="rDEXbTIAgyPYjfBjBcS_-1" source="rDEXbTIAgyPYjfBjBcS_-12" edge="1">
                    <mxGeometry width="50" height="50" relative="1" as="geometry">
                        <mxPoint x="460" y="660" as="sourcePoint"/>
                        <mxPoint x="470" y="720" as="targetPoint"/>
                    </mxGeometry>
                </mxCell>
                <mxCell id="rDEXbTIAgyPYjfBjBcS_-15" value="&lt;span&gt;Can&lt;/span&gt;&lt;br&gt;&lt;span&gt;Node2&lt;/span&gt;" style="rounded=1;whiteSpace=wrap;html=1;" parent="rDEXbTIAgyPYjfBjBcS_-1" vertex="1">
                    <mxGeometry x="510" y="760" width="40" height="60" as="geometry"/>
                </mxCell>
                <mxCell id="rDEXbTIAgyPYjfBjBcS_-16" value="" style="endArrow=classic;startArrow=classic;html=1;exitX=0.5;exitY=0;exitDx=0;exitDy=0;strokeColor=#005700;fillColor=#008a00;" parent="rDEXbTIAgyPYjfBjBcS_-1" source="rDEXbTIAgyPYjfBjBcS_-15" edge="1">
                    <mxGeometry width="50" height="50" relative="1" as="geometry">
                        <mxPoint x="520" y="660" as="sourcePoint"/>
                        <mxPoint x="530" y="720" as="targetPoint"/>
                    </mxGeometry>
                </mxCell>
                <mxCell id="rDEXbTIAgyPYjfBjBcS_-17" value="&lt;font style=&quot;font-size: 22px&quot;&gt;...&lt;/font&gt;" style="text;html=1;strokeColor=none;fillColor=none;align=center;verticalAlign=middle;whiteSpace=wrap;rounded=0;" parent="rDEXbTIAgyPYjfBjBcS_-1" vertex="1">
                    <mxGeometry x="570" y="770" width="40" height="20" as="geometry"/>
                </mxCell>
                <mxCell id="rDEXbTIAgyPYjfBjBcS_-18" value="" style="endArrow=classic;startArrow=classic;html=1;exitX=0.5;exitY=1;exitDx=0;exitDy=0;entryX=0.5;entryY=0;entryDx=0;entryDy=0;strokeColor=#A50040;fillColor=#d80073;" parent="rDEXbTIAgyPYjfBjBcS_-1" source="rDEXbTIAgyPYjfBjBcS_-6" target="rDEXbTIAgyPYjfBjBcS_-3" edge="1">
                    <mxGeometry width="50" height="50" relative="1" as="geometry">
                        <mxPoint x="310" y="510" as="sourcePoint"/>
                        <mxPoint x="360" y="460" as="targetPoint"/>
                    </mxGeometry>
                </mxCell>
                <mxCell id="rDEXbTIAgyPYjfBjBcS_-20" value="PDUR" style="rounded=0;whiteSpace=wrap;html=1;" parent="rDEXbTIAgyPYjfBjBcS_-1" vertex="1">
                    <mxGeometry x="160" y="440" width="260" height="40" as="geometry"/>
                </mxCell>
                <mxCell id="rDEXbTIAgyPYjfBjBcS_-21" value="CanTp" style="rounded=0;whiteSpace=wrap;html=1;" parent="rDEXbTIAgyPYjfBjBcS_-1" vertex="1">
                    <mxGeometry x="300" y="520" width="120" height="40" as="geometry"/>
                </mxCell>
                <mxCell id="rDEXbTIAgyPYjfBjBcS_-22" value="" style="endArrow=classic;startArrow=classic;html=1;entryX=0.228;entryY=1.042;entryDx=0;entryDy=0;entryPerimeter=0;strokeColor=#A50040;fillColor=#d80073;" parent="rDEXbTIAgyPYjfBjBcS_-1" target="rDEXbTIAgyPYjfBjBcS_-20" edge="1">
                    <mxGeometry width="50" height="50" relative="1" as="geometry">
                        <mxPoint x="220" y="520" as="sourcePoint"/>
                        <mxPoint x="320" y="460" as="targetPoint"/>
                    </mxGeometry>
                </mxCell>
                <mxCell id="rDEXbTIAgyPYjfBjBcS_-25" value="" style="endArrow=classic;startArrow=classic;html=1;entryX=0.5;entryY=0;entryDx=0;entryDy=0;exitX=0.77;exitY=1.017;exitDx=0;exitDy=0;exitPerimeter=0;fillColor=#008a00;strokeColor=#005700;" parent="rDEXbTIAgyPYjfBjBcS_-1" source="rDEXbTIAgyPYjfBjBcS_-20" target="rDEXbTIAgyPYjfBjBcS_-21" edge="1">
                    <mxGeometry width="50" height="50" relative="1" as="geometry">
                        <mxPoint x="260" y="520" as="sourcePoint"/>
                        <mxPoint x="310" y="470" as="targetPoint"/>
                    </mxGeometry>
                </mxCell>
                <mxCell id="rDEXbTIAgyPYjfBjBcS_-26" value="Can协议栈" style="rounded=0;whiteSpace=wrap;html=1;" parent="rDEXbTIAgyPYjfBjBcS_-1" vertex="1">
                    <mxGeometry x="300" y="600" width="120" height="40" as="geometry"/>
                </mxCell>
                <mxCell id="rDEXbTIAgyPYjfBjBcS_-27" value="" style="endArrow=classic;startArrow=classic;html=1;entryX=0.5;entryY=1;entryDx=0;entryDy=0;strokeColor=#005700;fillColor=#008a00;" parent="rDEXbTIAgyPYjfBjBcS_-1" source="rDEXbTIAgyPYjfBjBcS_-26" target="rDEXbTIAgyPYjfBjBcS_-21" edge="1">
                    <mxGeometry width="50" height="50" relative="1" as="geometry">
                        <mxPoint x="260" y="590" as="sourcePoint"/>
                        <mxPoint x="310" y="540" as="targetPoint"/>
                    </mxGeometry>
                </mxCell>
                <mxCell id="rDEXbTIAgyPYjfBjBcS_-28" value="" style="endArrow=classic;startArrow=classic;html=1;exitX=0.5;exitY=0;exitDx=0;exitDy=0;entryX=0.5;entryY=1;entryDx=0;entryDy=0;" parent="rDEXbTIAgyPYjfBjBcS_-1" source="rDEXbTIAgyPYjfBjBcS_-20" target="rDEXbTIAgyPYjfBjBcS_-7" edge="1">
                    <mxGeometry width="50" height="50" relative="1" as="geometry">
                        <mxPoint x="260" y="460" as="sourcePoint"/>
                        <mxPoint x="310" y="410" as="targetPoint"/>
                    </mxGeometry>
                </mxCell>
                <mxCell id="rDEXbTIAgyPYjfBjBcS_-30" value="" style="endArrow=none;html=1;strokeColor=#005700;fillColor=#008a00;startArrow=none;startFill=0;endFill=0;strokeWidth=5;" parent="rDEXbTIAgyPYjfBjBcS_-1" edge="1">
                    <mxGeometry width="50" height="50" relative="1" as="geometry">
                        <mxPoint x="360" y="720" as="sourcePoint"/>
                        <mxPoint x="600" y="720" as="targetPoint"/>
                    </mxGeometry>
                </mxCell>
                <mxCell id="rDEXbTIAgyPYjfBjBcS_-31" value="" style="endArrow=classic;startArrow=classic;html=1;exitX=0.5;exitY=1;exitDx=0;exitDy=0;strokeColor=#005700;fillColor=#008a00;" parent="rDEXbTIAgyPYjfBjBcS_-1" source="rDEXbTIAgyPYjfBjBcS_-26" edge="1">
                    <mxGeometry width="50" height="50" relative="1" as="geometry">
                        <mxPoint x="410" y="530" as="sourcePoint"/>
                        <mxPoint x="360" y="720" as="targetPoint"/>
                    </mxGeometry>
                </mxCell>
                <mxCell id="rDEXbTIAgyPYjfBjBcS_-32" value="" style="ellipse;whiteSpace=wrap;html=1;fillColor=none;dashed=1;" parent="rDEXbTIAgyPYjfBjBcS_-1" vertex="1">
                    <mxGeometry x="205" y="475" width="30" height="50" as="geometry"/>
                </mxCell>
                <mxCell id="rDEXbTIAgyPYjfBjBcS_-33" value="" style="ellipse;whiteSpace=wrap;html=1;fillColor=none;dashed=1;" parent="rDEXbTIAgyPYjfBjBcS_-1" vertex="1">
                    <mxGeometry x="205" y="550" width="30" height="50" as="geometry"/>
                </mxCell>
                <mxCell id="rDEXbTIAgyPYjfBjBcS_-35" value="" style="ellipse;whiteSpace=wrap;html=1;fillColor=none;dashed=1;" parent="rDEXbTIAgyPYjfBjBcS_-1" vertex="1">
                    <mxGeometry x="345" y="475" width="30" height="50" as="geometry"/>
                </mxCell>
                <mxCell id="rDEXbTIAgyPYjfBjBcS_-37" value="" style="ellipse;whiteSpace=wrap;html=1;fillColor=none;dashed=1;" parent="rDEXbTIAgyPYjfBjBcS_-1" vertex="1">
                    <mxGeometry x="275" y="395" width="30" height="50" as="geometry"/>
                </mxCell>
            </root>
        </mxGraphModel>
    </diagram>
    <diagram id="WsGH63YB1huQAsqS66KI" name="第 3 页">
        <mxGraphModel dx="242" dy="210" grid="1" gridSize="10" guides="1" tooltips="1" connect="1" arrows="1" fold="1" page="1" pageScale="1" pageWidth="827" pageHeight="1169" math="0" shadow="0">
            <root>
                <mxCell id="lf9Z-oEx7NxUYqWjyVAT-0"/>
                <mxCell id="lf9Z-oEx7NxUYqWjyVAT-1" parent="lf9Z-oEx7NxUYqWjyVAT-0"/>
                <mxCell id="lf9Z-oEx7NxUYqWjyVAT-11" value="" style="edgeStyle=none;html=1;" edge="1" parent="lf9Z-oEx7NxUYqWjyVAT-1" source="lf9Z-oEx7NxUYqWjyVAT-2" target="lf9Z-oEx7NxUYqWjyVAT-4">
                    <mxGeometry relative="1" as="geometry"/>
                </mxCell>
                <mxCell id="lf9Z-oEx7NxUYqWjyVAT-2" value="Ram Block 值改变" style="rounded=0;whiteSpace=wrap;html=1;" vertex="1" parent="lf9Z-oEx7NxUYqWjyVAT-1">
                    <mxGeometry x="200" y="200" width="120" height="40" as="geometry"/>
                </mxCell>
                <mxCell id="lf9Z-oEx7NxUYqWjyVAT-3" value="NvM_SetRamBlockStatus(id, TRUE)" style="rounded=0;whiteSpace=wrap;html=1;" vertex="1" parent="lf9Z-oEx7NxUYqWjyVAT-1">
                    <mxGeometry x="165" y="280" width="190" height="40" as="geometry"/>
                </mxCell>
                <mxCell id="lf9Z-oEx7NxUYqWjyVAT-12" value="" style="edgeStyle=none;html=1;" edge="1" parent="lf9Z-oEx7NxUYqWjyVAT-1" source="lf9Z-oEx7NxUYqWjyVAT-4" target="lf9Z-oEx7NxUYqWjyVAT-5">
                    <mxGeometry relative="1" as="geometry"/>
                </mxCell>
                <mxCell id="lf9Z-oEx7NxUYqWjyVAT-26" value="Y" style="edgeLabel;html=1;align=center;verticalAlign=middle;resizable=0;points=[];" vertex="1" connectable="0" parent="lf9Z-oEx7NxUYqWjyVAT-12">
                    <mxGeometry x="-0.1548" relative="1" as="geometry">
                        <mxPoint as="offset"/>
                    </mxGeometry>
                </mxCell>
                <mxCell id="lf9Z-oEx7NxUYqWjyVAT-25" style="edgeStyle=orthogonalEdgeStyle;html=1;exitX=0;exitY=0.5;exitDx=0;exitDy=0;entryX=0.5;entryY=0;entryDx=0;entryDy=0;" edge="1" parent="lf9Z-oEx7NxUYqWjyVAT-1" source="lf9Z-oEx7NxUYqWjyVAT-4" target="lf9Z-oEx7NxUYqWjyVAT-23">
                    <mxGeometry relative="1" as="geometry">
                        <Array as="points">
                            <mxPoint x="40" y="390"/>
                            <mxPoint x="40" y="540"/>
                            <mxPoint x="260" y="540"/>
                        </Array>
                    </mxGeometry>
                </mxCell>
                <mxCell id="lf9Z-oEx7NxUYqWjyVAT-27" value="N" style="edgeLabel;html=1;align=center;verticalAlign=middle;resizable=0;points=[];" vertex="1" connectable="0" parent="lf9Z-oEx7NxUYqWjyVAT-25">
                    <mxGeometry x="-0.5683" relative="1" as="geometry">
                        <mxPoint as="offset"/>
                    </mxGeometry>
                </mxCell>
                <mxCell id="lf9Z-oEx7NxUYqWjyVAT-4" value="CalcRamBlockCrc == TRUE" style="rhombus;whiteSpace=wrap;html=1;" vertex="1" parent="lf9Z-oEx7NxUYqWjyVAT-1">
                    <mxGeometry x="65" y="350" width="390" height="80" as="geometry"/>
                </mxCell>
                <mxCell id="lf9Z-oEx7NxUYqWjyVAT-24" value="" style="edgeStyle=orthogonalEdgeStyle;html=1;" edge="1" parent="lf9Z-oEx7NxUYqWjyVAT-1" source="lf9Z-oEx7NxUYqWjyVAT-5" target="lf9Z-oEx7NxUYqWjyVAT-23">
                    <mxGeometry relative="1" as="geometry"/>
                </mxCell>
                <mxCell id="lf9Z-oEx7NxUYqWjyVAT-5" value="内部 CRC buffer 重新计算" style="rounded=0;whiteSpace=wrap;html=1;" vertex="1" parent="lf9Z-oEx7NxUYqWjyVAT-1">
                    <mxGeometry x="165" y="480" width="190" height="40" as="geometry"/>
                </mxCell>
                <mxCell id="lf9Z-oEx7NxUYqWjyVAT-13" value="" style="edgeStyle=none;html=1;" edge="1" parent="lf9Z-oEx7NxUYqWjyVAT-1" source="lf9Z-oEx7NxUYqWjyVAT-6" target="lf9Z-oEx7NxUYqWjyVAT-7">
                    <mxGeometry relative="1" as="geometry"/>
                </mxCell>
                <mxCell id="lf9Z-oEx7NxUYqWjyVAT-6" value="热启动 NvM_ReadAll" style="rounded=0;whiteSpace=wrap;html=1;" vertex="1" parent="lf9Z-oEx7NxUYqWjyVAT-1">
                    <mxGeometry x="660" y="200" width="120" height="40" as="geometry"/>
                </mxCell>
                <mxCell id="lf9Z-oEx7NxUYqWjyVAT-28" value="" style="edgeStyle=orthogonalEdgeStyle;html=1;" edge="1" parent="lf9Z-oEx7NxUYqWjyVAT-1" source="lf9Z-oEx7NxUYqWjyVAT-7" target="lf9Z-oEx7NxUYqWjyVAT-8">
                    <mxGeometry relative="1" as="geometry"/>
                </mxCell>
                <mxCell id="lf9Z-oEx7NxUYqWjyVAT-7" value="计算 Ram Block CRC值" style="rounded=0;whiteSpace=wrap;html=1;" vertex="1" parent="lf9Z-oEx7NxUYqWjyVAT-1">
                    <mxGeometry x="625" y="280" width="190" height="40" as="geometry"/>
                </mxCell>
                <mxCell id="lf9Z-oEx7NxUYqWjyVAT-14" value="" style="edgeStyle=none;html=1;" edge="1" parent="lf9Z-oEx7NxUYqWjyVAT-1" source="lf9Z-oEx7NxUYqWjyVAT-8" target="lf9Z-oEx7NxUYqWjyVAT-9">
                    <mxGeometry relative="1" as="geometry"/>
                </mxCell>
                <mxCell id="lf9Z-oEx7NxUYqWjyVAT-29" value="Y" style="edgeLabel;html=1;align=center;verticalAlign=middle;resizable=0;points=[];" vertex="1" connectable="0" parent="lf9Z-oEx7NxUYqWjyVAT-14">
                    <mxGeometry x="-0.3158" relative="1" as="geometry">
                        <mxPoint as="offset"/>
                    </mxGeometry>
                </mxCell>
                <mxCell id="lf9Z-oEx7NxUYqWjyVAT-18" style="edgeStyle=orthogonalEdgeStyle;html=1;exitX=1;exitY=0.5;exitDx=0;exitDy=0;entryX=0.5;entryY=0;entryDx=0;entryDy=0;" edge="1" parent="lf9Z-oEx7NxUYqWjyVAT-1" source="lf9Z-oEx7NxUYqWjyVAT-8" target="lf9Z-oEx7NxUYqWjyVAT-10">
                    <mxGeometry relative="1" as="geometry"/>
                </mxCell>
                <mxCell id="lf9Z-oEx7NxUYqWjyVAT-30" value="N" style="edgeLabel;html=1;align=center;verticalAlign=middle;resizable=0;points=[];" vertex="1" connectable="0" parent="lf9Z-oEx7NxUYqWjyVAT-18">
                    <mxGeometry x="0.535" relative="1" as="geometry">
                        <mxPoint as="offset"/>
                    </mxGeometry>
                </mxCell>
                <mxCell id="lf9Z-oEx7NxUYqWjyVAT-8" value="计算值 == 内部 CRC buffer值" style="rhombus;whiteSpace=wrap;html=1;" vertex="1" parent="lf9Z-oEx7NxUYqWjyVAT-1">
                    <mxGeometry x="525" y="360" width="390" height="80" as="geometry"/>
                </mxCell>
                <mxCell id="lf9Z-oEx7NxUYqWjyVAT-20" value="" style="edgeStyle=orthogonalEdgeStyle;html=1;" edge="1" parent="lf9Z-oEx7NxUYqWjyVAT-1" source="lf9Z-oEx7NxUYqWjyVAT-9" target="lf9Z-oEx7NxUYqWjyVAT-19">
                    <mxGeometry relative="1" as="geometry"/>
                </mxCell>
                <mxCell id="lf9Z-oEx7NxUYqWjyVAT-9" value="跳过 Block Read" style="rounded=0;whiteSpace=wrap;html=1;" vertex="1" parent="lf9Z-oEx7NxUYqWjyVAT-1">
                    <mxGeometry x="625" y="480" width="190" height="40" as="geometry"/>
                </mxCell>
                <mxCell id="lf9Z-oEx7NxUYqWjyVAT-21" style="edgeStyle=orthogonalEdgeStyle;html=1;exitX=0.5;exitY=1;exitDx=0;exitDy=0;entryX=0.5;entryY=0;entryDx=0;entryDy=0;" edge="1" parent="lf9Z-oEx7NxUYqWjyVAT-1" source="lf9Z-oEx7NxUYqWjyVAT-10" target="lf9Z-oEx7NxUYqWjyVAT-19">
                    <mxGeometry relative="1" as="geometry"/>
                </mxCell>
                <mxCell id="lf9Z-oEx7NxUYqWjyVAT-10" value="Read NV Block 并覆盖 Ram Block" style="rounded=0;whiteSpace=wrap;html=1;" vertex="1" parent="lf9Z-oEx7NxUYqWjyVAT-1">
                    <mxGeometry x="940" y="480" width="190" height="40" as="geometry"/>
                </mxCell>
                <mxCell id="lf9Z-oEx7NxUYqWjyVAT-19" value="结束" style="rounded=1;whiteSpace=wrap;html=1;" vertex="1" parent="lf9Z-oEx7NxUYqWjyVAT-1">
                    <mxGeometry x="660" y="600" width="120" height="40" as="geometry"/>
                </mxCell>
                <mxCell id="lf9Z-oEx7NxUYqWjyVAT-23" value="结束" style="rounded=1;whiteSpace=wrap;html=1;" vertex="1" parent="lf9Z-oEx7NxUYqWjyVAT-1">
                    <mxGeometry x="200" y="565" width="120" height="40" as="geometry"/>
                </mxCell>
            </root>
        </mxGraphModel>
    </diagram>
</mxfile>